<svg width="100%" height="100%" viewBox="0 0 83 32" fill="none" xmlns="http://www.w3.org/2000/svg">
<path fill-rule="evenodd" clip-rule="evenodd" d="M8.57812 25.1932V31.8917H14.3368V25.498C18.6394 25.1863 22.2271 23.6206 24.9862 21.0133C26.636 23.4357 28.2708 26.7414 29.7402 31.2797L29.7409 31.2822C29.747 31.3047 29.7563 31.3403 29.7682 31.3881C29.792 31.4842 29.82 31.6048 29.8461 31.7278C29.8729 31.854 29.8725 31.8915 29.8725 31.8915H35.8902C35.8902 31.333 35.748 30.6335 35.6952 30.3856L35.6932 30.376C35.622 30.0411 35.5171 29.5989 35.4247 29.3132C33.513 23.3995 31.2319 19.0423 28.7408 15.8472C30.2353 12.8076 31.0298 9.29433 31.249 5.61078C31.2967 5.07903 31.2965 4.37031 31.2965 4.10095L31.2965 4.07398H25.3074C25.3074 4.23065 25.3069 4.4362 25.3026 4.63774C25.3005 4.738 25.2976 4.82774 25.2941 4.90267C25.2923 4.93964 25.2906 4.96913 25.289 4.9915C25.2876 5.01241 25.2866 5.02199 25.2866 5.02199L25.2787 5.09726L25.2744 5.17317C25.1415 7.47469 24.7463 9.52998 24.1191 11.3057C24.0001 11.219 23.8808 11.1342 23.7614 11.0511C20.319 8.6573 16.9382 7.92961 14.3368 7.63731V0.476562H8.57812V7.64348C7.27773 7.86598 6.00979 8.27005 4.87053 8.89987C2.49931 10.2108 0.609375 12.5947 0.609375 16.0299C0.609375 18.9018 1.62842 21.5453 4.04752 23.3218C5.32051 24.2567 6.85391 24.8538 8.57812 25.1932ZM14.3368 19.2328C17.114 18.9575 19.2251 17.9662 20.8182 16.5205C20.6908 16.4255 20.5642 16.3343 20.4385 16.2469C18.3306 14.781 16.2629 14.2043 14.3368 13.9301V19.2328ZM8.57812 14.0384V18.7602C8.10557 18.5936 7.75299 18.4046 7.49599 18.2158C6.95101 17.8156 6.59845 17.2575 6.59845 16.0299C6.59845 15.3656 6.8415 14.8788 7.67584 14.4176C7.9367 14.2733 8.23962 14.1456 8.57812 14.0384ZM70.4798 10.0115V4.16016H64.0547V31.8923H70.4798V20.4572C70.4798 16.2962 76.5318 11.6152 81.5476 11.6152H82.2523V4.89699H81.5476C77.1536 4.89699 72.4695 6.63071 70.4798 10.0115ZM55.4528 18.0135C55.4528 22.1701 52.2214 25.5397 48.2352 25.5397C44.2491 25.5397 41.0176 22.1701 41.0176 18.0135C41.0176 13.8569 44.2491 10.4873 48.2352 10.4873C52.2214 10.4873 55.4528 13.8569 55.4528 18.0135ZM61.5955 18.0135C61.5955 25.7077 55.6139 31.945 48.2352 31.945C40.8566 31.945 34.875 25.7077 34.875 18.0135C34.875 10.3194 40.8566 4.08203 48.2352 4.08203C55.6139 4.08203 61.5955 10.3194 61.5955 18.0135Z" fill="white"></path>
</svg>