<svg width="40" height="40" viewBox="0 0 40 40" fill="none" xmlns="http://www.w3.org/2000/svg">
<path d="M35.7517 0H4.24833C1.90204 0 0 1.90204 0 4.24833V35.7517C0 38.098 1.90204 40 4.24833 40H35.7517C38.098 40 40 38.098 40 35.7517V4.24833C40 1.90204 38.098 0 35.7517 0Z" fill="#5A50FA"/>
<path d="M32.6632 15.607L30.0855 22.363V14.9538L25.6021 13.8336L22.239 24.3793V12.9915L17.7529 11.8713L14.3898 25.5966V11.0319L9.90642 9.909L6.56213 19.9985L7.40968 20.0039L9.90642 12.403V30.0908L14.3898 28.9679L17.7529 15.2318V28.1285L22.239 27.0056L25.6021 16.4572V26.1661L30.0855 25.046L33.4379 15.8013L32.6632 15.607Z" fill="white"/>
</svg>
