<svg width="56" height="56" viewBox="0 0 56 56" fill="none" xmlns="http://www.w3.org/2000/svg">
<rect width="56" height="56" rx="28" fill="#E6FF03"/>
<path fill-rule="evenodd" clip-rule="evenodd" d="M25.1918 17.7336C24.9077 17.9757 24.7656 18.0968 24.6139 18.1984C24.2661 18.4316 23.8755 18.5933 23.4648 18.6744C23.2856 18.7098 23.0995 18.7247 22.7274 18.7543C21.7925 18.829 21.325 18.8663 20.935 19.004C20.0329 19.3226 19.3234 20.0322 19.0048 20.9342C18.867 21.3243 18.8297 21.7917 18.7551 22.7267C18.7254 23.0988 18.7105 23.2848 18.6752 23.464C18.5941 23.8748 18.4323 24.2654 18.1992 24.6132C18.0975 24.7649 17.9764 24.9069 17.7343 25.1911C17.126 25.9049 16.8218 26.2619 16.6434 26.635C16.2308 27.4982 16.2308 28.5016 16.6434 29.3648C16.8218 29.738 17.1259 30.0949 17.7343 30.8088C17.9764 31.0929 18.0975 31.235 18.1992 31.3867C18.4323 31.7345 18.5941 32.125 18.6752 32.5358C18.7105 32.715 18.7254 32.901 18.7551 33.2732C18.8297 34.2081 18.867 34.6756 19.0048 35.0656C19.3234 35.9677 20.0329 36.6772 20.935 36.9958C21.325 37.1336 21.7925 37.1709 22.7274 37.2455C23.0995 37.2752 23.2856 37.29 23.4648 37.3254C23.8755 37.4065 24.2661 37.5683 24.6139 37.8014C24.7656 37.9031 24.9077 38.0241 25.1918 38.2663C25.9057 38.8746 26.2626 39.1788 26.6358 39.3572C27.4989 39.7697 28.5024 39.7697 29.3655 39.3572C29.7387 39.1788 30.0956 38.8746 30.8095 38.2663C31.0936 38.0241 31.2357 37.9031 31.3874 37.8014C31.7352 37.5683 32.1258 37.4065 32.5365 37.3254C32.7157 37.29 32.9018 37.2752 33.2739 37.2455C34.2088 37.1709 34.6763 37.1336 35.0663 36.9958C35.9684 36.6772 36.6779 35.9677 36.9965 35.0656C37.1343 34.6756 37.1716 34.2081 37.2462 33.2732C37.2759 32.901 37.2908 32.715 37.3261 32.5358C37.4072 32.125 37.569 31.7345 37.8021 31.3867C37.9038 31.235 38.0249 31.0929 38.267 30.8088C38.8754 30.0949 39.1795 29.738 39.3579 29.3648C39.7705 28.5016 39.7705 27.4982 39.3579 26.635C39.1795 26.2619 38.8754 25.9049 38.267 25.1911C38.0249 24.9069 37.9038 24.7649 37.8021 24.6132C37.569 24.2654 37.4072 23.8748 37.3261 23.464C37.2908 23.2848 37.2759 23.0988 37.2462 22.7267C37.1716 21.7917 37.1343 21.3243 36.9965 20.9342C36.6779 20.0322 35.9684 19.3226 35.0663 19.004C34.6763 18.8663 34.2088 18.829 33.2739 18.7543C32.9018 18.7247 32.7157 18.7098 32.5365 18.6744C32.1258 18.5933 31.7352 18.4316 31.3874 18.1984C31.2357 18.0968 31.0936 17.9757 30.8095 17.7336C30.0956 17.1252 29.7387 16.821 29.3655 16.6427C28.5024 16.2301 27.4989 16.2301 26.6358 16.6427C26.2626 16.821 25.9056 17.1252 25.1918 17.7336ZM33.1031 25.5069C33.4739 25.1361 33.4739 24.5349 33.1031 24.1641C32.7322 23.7933 32.1311 23.7933 31.7602 24.1641L26.1016 29.8227L24.241 27.9621C23.8702 27.5913 23.269 27.5913 22.8982 27.9621C22.5274 28.3329 22.5274 28.9341 22.8982 29.3049L25.4302 31.8369C25.801 32.2077 26.4022 32.2077 26.773 31.8369L33.1031 25.5069Z" fill="#101E1C"/>
</svg>
