<svg width="56" height="56" viewBox="0 0 56 56" fill="none" xmlns="http://www.w3.org/2000/svg">
<rect width="56" height="56" rx="28" fill="#E6FF03"/>
<circle cx="25.6667" cy="21.8749" r="4.66667" fill="#101E1C"/>
<ellipse cx="25.6667" cy="34.7084" rx="8.16667" ry="4.66667" fill="#101E1C"/>
<path fill-rule="evenodd" clip-rule="evenodd" d="M35.4172 16.7582C35.6658 16.3438 36.2033 16.2094 36.6177 16.4581L36.1675 17.2084C36.6177 16.4581 36.6173 16.4578 36.6177 16.4581L36.6193 16.4591L36.6211 16.4602L36.6255 16.4628L36.6367 16.4697C36.6452 16.475 36.656 16.4818 36.6689 16.4901C36.6945 16.5068 36.7285 16.5294 36.7695 16.5581C36.8516 16.6155 36.9624 16.6978 37.0923 16.806C37.3514 17.0219 37.6902 17.3445 38.0277 17.7832C38.7077 18.6672 39.3758 20.017 39.3758 21.8751C39.3758 23.7331 38.7077 25.0829 38.0277 25.9669C37.6902 26.4056 37.3514 26.7282 37.0923 26.9441C36.9624 27.0523 36.8516 27.1346 36.7695 27.192C36.7285 27.2207 36.6945 27.2433 36.6689 27.26C36.656 27.2683 36.6452 27.2751 36.6367 27.2804L36.6255 27.2873L36.6211 27.2899L36.6193 27.291C36.6189 27.2913 36.6177 27.292 36.1675 26.5417L36.6177 27.292C36.2033 27.5407 35.6658 27.4063 35.4172 26.9919C35.1696 26.5793 35.3018 26.0446 35.7121 25.7946L35.7186 25.7904C35.7271 25.7849 35.7432 25.7743 35.766 25.7584C35.8116 25.7265 35.883 25.6738 35.9719 25.5997C36.1503 25.4511 36.3948 25.2195 36.6406 24.8999C37.1273 24.2672 37.6258 23.2836 37.6258 21.8751C37.6258 20.4665 37.1273 19.4829 36.6406 18.8502C36.3948 18.5306 36.1503 18.299 35.9719 18.1504C35.883 18.0763 35.8116 18.0236 35.766 17.9917C35.7432 17.9758 35.7271 17.9652 35.7186 17.9597L35.7121 17.9555C35.3018 17.7055 35.1696 17.1708 35.4172 16.7582Z" fill="#101E1C"/>
<path fill-rule="evenodd" clip-rule="evenodd" d="M33.0516 19.1504C33.2677 18.7182 33.7933 18.543 34.2255 18.7591L33.8342 19.5417C34.2255 18.7591 34.225 18.7589 34.2255 18.7591L34.2274 18.76L34.2294 18.7611L34.2337 18.7633L34.2438 18.7685L34.269 18.782C34.288 18.7925 34.3113 18.8058 34.3384 18.8223C34.3925 18.8551 34.462 18.9006 34.5415 18.9602C34.7001 19.0791 34.9018 19.2568 35.1008 19.5055C35.5076 20.0141 35.8758 20.7875 35.8758 21.8751C35.8758 22.9626 35.5076 23.736 35.1008 24.2446C34.9018 24.4933 34.7001 24.671 34.5415 24.7899C34.462 24.8495 34.3925 24.895 34.3384 24.9278C34.3113 24.9443 34.288 24.9576 34.269 24.9681L34.2438 24.9816L34.2337 24.9868L34.2294 24.989L34.2274 24.9901C34.2269 24.9903 34.2255 24.991 33.8415 24.223L34.2255 24.991C33.7933 25.2071 33.2677 25.0319 33.0516 24.5997C32.8381 24.1728 33.0063 23.655 33.4268 23.434C33.4277 23.4335 33.4288 23.4328 33.4302 23.432C33.4399 23.4261 33.4616 23.4123 33.4915 23.3899C33.5516 23.3448 33.6416 23.2672 33.7342 23.1514C33.9107 22.9307 34.1258 22.5375 34.1258 21.8751C34.1258 21.2126 33.9107 20.8194 33.7342 20.5987C33.6416 20.4829 33.5516 20.4053 33.4915 20.3602C33.4616 20.3378 33.4399 20.324 33.4302 20.3181C33.4288 20.3173 33.4277 20.3166 33.4268 20.3161C33.0063 20.0952 32.8381 19.5773 33.0516 19.1504Z" fill="#101E1C"/>
</svg>
