<svg width="56" height="56" viewBox="0 0 56 56" fill="none" xmlns="http://www.w3.org/2000/svg">
<rect width="56" height="56" rx="28" fill="#E6FF03"/>
<path fill-rule="evenodd" clip-rule="evenodd" d="M18.0425 18.0418C16.334 19.7503 16.334 22.5002 16.334 27.9999C16.334 33.4996 16.334 36.2495 18.0425 37.958C19.7511 39.6666 22.5009 39.6666 28.0007 39.6666C33.5004 39.6666 36.2502 39.6666 37.9588 37.958C39.6673 36.2495 39.6673 33.4996 39.6673 27.9999C39.6673 22.5002 39.6673 19.7503 37.9588 18.0418C36.2502 16.3333 33.5004 16.3333 28.0007 16.3333C22.5009 16.3333 19.7511 16.3333 18.0425 18.0418ZM26.3009 22.77C26.6342 22.4201 26.6207 21.8662 26.2708 21.533C25.9208 21.1997 25.367 21.2132 25.0337 21.5631L22.334 24.3978L21.6343 23.6631C21.301 23.3132 20.7471 23.2997 20.3972 23.633C20.0473 23.9662 20.0338 24.5201 20.367 24.87L21.7004 26.27C21.8655 26.4434 22.0945 26.5416 22.334 26.5416C22.5735 26.5416 22.8025 26.4434 22.9676 26.27L26.3009 22.77ZM29.1673 23.6249C28.6841 23.6249 28.2923 24.0167 28.2923 24.4999C28.2923 24.9832 28.6841 25.3749 29.1673 25.3749H35.0007C35.4839 25.3749 35.8757 24.9832 35.8757 24.4999C35.8757 24.0167 35.4839 23.6249 35.0007 23.6249H29.1673ZM26.3009 30.9367C26.6342 30.5868 26.6207 30.0329 26.2708 29.6996C25.9208 29.3664 25.367 29.3799 25.0337 29.7298L22.334 32.5645L21.6343 31.8298C21.301 31.4799 20.7471 31.4664 20.3972 31.7996C20.0473 32.1329 20.0338 32.6868 20.367 33.0367L21.7004 34.4367C21.8655 34.6101 22.0945 34.7083 22.334 34.7083C22.5735 34.7083 22.8025 34.6101 22.9676 34.4367L26.3009 30.9367ZM29.1673 31.7916C28.6841 31.7916 28.2923 32.1833 28.2923 32.6666C28.2923 33.1498 28.6841 33.5416 29.1673 33.5416H35.0007C35.4839 33.5416 35.8757 33.1498 35.8757 32.6666C35.8757 32.1833 35.4839 31.7916 35.0007 31.7916H29.1673Z" fill="#101E1C"/>
</svg>
