<svg width="56" height="56" viewBox="0 0 56 56" fill="none" xmlns="http://www.w3.org/2000/svg">
<rect width="56" height="56" rx="28" fill="#E6FF03"/>
<path fill-rule="evenodd" clip-rule="evenodd" d="M17.9404 19.9294C17.5 20.5569 17.5 22.4222 17.5 26.1527V27.9898C17.5 34.5676 22.4455 37.7597 25.5483 39.1151C26.39 39.4827 26.8109 39.6666 28 39.6666C29.1891 39.6666 29.61 39.4827 30.4517 39.1151C33.5545 37.7597 38.5 34.5676 38.5 27.9898V26.1527C38.5 22.4222 38.5 20.5569 38.0596 19.9294C37.6191 19.3019 35.8653 18.7015 32.3576 17.5008L31.6893 17.2721C29.8609 16.6462 28.9466 16.3333 28 16.3333C27.0534 16.3333 26.1391 16.6462 24.3107 17.2721L23.6424 17.5008C20.1347 18.7015 18.3809 19.3019 17.9404 19.9294ZM33.1917 26.7749L29.225 23.7999C28.4991 23.2555 27.5009 23.2555 26.775 23.7999L22.8083 26.7749C22.4217 27.0649 22.3434 27.6133 22.6333 27.9999C22.9233 28.3865 23.4717 28.4649 23.8583 28.1749L27.825 25.1999C27.9287 25.1221 28.0713 25.1221 28.175 25.1999L32.1417 28.1749C32.5283 28.4649 33.0767 28.3865 33.3667 27.9999C33.6566 27.6133 33.5783 27.0649 33.1917 26.7749ZM30.8583 29.6916L28.525 27.9416C28.2139 27.7083 27.7861 27.7083 27.475 27.9416L25.1417 29.6916C24.7551 29.9815 24.6767 30.53 24.9667 30.9166C25.2566 31.3032 25.8051 31.3815 26.1917 31.0916L28 29.7353L29.8083 31.0916C30.1949 31.3815 30.7434 31.3032 31.0333 30.9166C31.3233 30.53 31.2449 29.9815 30.8583 29.6916Z" fill="#101E1C"/>
</svg>
