<svg width="38" height="44" fill="none" xmlns="http://www.w3.org/2000/svg"><path d="M19.185 1 1 11.5l9.094 5.249 18.185-10.5L19.185 1Z" fill="#F5F5F5" stroke="#1B1B1B" stroke-width=".5" stroke-linejoin="round"/><path d="m19.177 32.5 9.094-5.249-9.094-5.25-9.094 5.25 9.094 5.25Z" fill="#FFB1E6" stroke="#1B1B1B" stroke-width=".5" stroke-linejoin="round"/><path d="M28.282 6.25 19.19 11.5l9.093 5.249 9.094-5.25-9.094-5.25Z" fill="#F5F5F5" stroke="#1B1B1B" stroke-width=".5" stroke-linejoin="round"/><path d="m1 11.499 9.094 5.25V27.25L1 22V11.5ZM1 22.002V32.5L19.185 43V32.5L1 22.003Z" fill="#E4E3DE" stroke="#1B1B1B" stroke-width=".5" stroke-linejoin="round"/><path d="m28.282 27.25-9.093-5.249V11.5l9.093 5.25V27.25Z" fill="#F73" stroke="#1B1B1B" stroke-width=".5" stroke-linejoin="round"/><path d="M28.281 16.749v21l9.094-5.249V11.5l-9.094 5.25Z" fill="#fff" stroke="#1B1B1B" stroke-width=".5" stroke-linejoin="round"/><path d="m28.282 27.251-9.093 5.25V43l9.093-5.25V27.251Z" fill="#fff" stroke="#1B1B1B" stroke-width=".5" stroke-linejoin="round"/><path d="m10.083 27.25 9.091-5.249V11.5l-9.091 5.25V27.25Z" fill="#009FBD" stroke="#1B1B1B" stroke-width=".5" stroke-linejoin="round"/></svg>