<svg width="96" height="40" viewBox="0 0 96 40" fill="none" xmlns="http://www.w3.org/2000/svg">
<g clip-path="url(#clip0_136_7138)">
<path d="M58.589 -0.00019455V12.2049C58.7217 12.0722 58.9389 11.9395 59.2044 11.7645C59.5121 11.5473 60.1275 11.2819 61.0505 10.9742C61.9736 10.6665 62.9811 10.4915 63.9947 10.4915C66.7157 10.4915 69.0023 11.4146 70.8424 13.303C72.6885 15.1491 73.6056 17.3874 73.6056 20.0662C73.6056 22.7449 72.6825 24.941 70.7941 26.8294C68.948 28.7178 66.6674 29.6408 63.9887 29.6408C61.31 29.6408 59.1139 28.76 57.2255 27.0526C55.3371 25.3392 54.3718 22.9681 54.3718 19.9395V-0.00019455H58.589ZM63.9887 14.5337C60.96 14.5337 58.589 16.8626 58.589 20.0662C58.589 23.2698 60.8695 25.5986 63.9887 25.5986C67.1078 25.5986 69.3884 23.2276 69.3884 20.0662C69.3884 16.9048 67.0173 14.5337 63.9887 14.5337Z" fill="#CEF521"/>
<path d="M35.0699 13.3036C36.9583 11.4152 39.1966 10.4921 41.8753 10.4921C44.5541 10.4921 46.7501 11.4152 48.6385 13.3036C50.5269 15.192 51.45 17.4303 51.45 20.0668C51.45 22.7033 50.5269 24.9838 48.6385 26.8722C46.7501 28.7183 44.5118 29.6414 41.8753 29.6414C39.2388 29.6414 36.9583 28.7183 35.0699 26.8722C33.1815 24.9838 32.2584 22.7455 32.2584 20.0668C32.2584 17.388 33.1815 15.192 35.0699 13.3036ZM36.4756 20.0668C36.4756 21.6897 37.0005 23.011 38.0141 24.0607C39.0699 25.0683 40.3429 25.5992 41.8753 25.5992C43.4078 25.5992 44.6868 25.0743 45.6943 24.0607C46.7501 23.0049 47.275 21.6897 47.275 20.0668C47.275 18.4438 46.7501 17.1226 45.6943 16.115C44.6868 15.0592 43.4138 14.5343 41.8753 14.5343C40.3369 14.5343 39.0639 15.0592 38.0141 16.115C37.0065 17.1226 36.4756 18.4438 36.4756 20.0668Z" fill="#CEF521"/>
<path d="M79.3365 13.3036C81.2248 11.4152 83.4632 10.4921 86.1419 10.4921C88.8206 10.4921 91.0167 11.4152 92.9051 13.3036C94.7935 15.192 95.7165 17.4303 95.7165 20.0668C95.7165 22.7033 94.7935 24.9838 92.9051 26.8722C91.0167 28.7183 88.7784 29.6414 86.1419 29.6414C83.5054 29.6414 81.2248 28.7183 79.3365 26.8722C77.4481 24.9838 76.525 22.7455 76.525 20.0668C76.525 17.388 77.4481 15.192 79.3365 13.3036ZM80.7422 20.0668C80.7422 21.6897 81.2671 23.011 82.2807 24.0607C83.3365 25.0683 84.6095 25.5992 86.1419 25.5992C87.6743 25.5992 88.9534 25.0743 89.9609 24.0607C91.0167 23.0049 91.5416 21.6897 91.5416 20.0668C91.5416 18.4438 91.0167 17.1226 89.9609 16.115C88.9534 15.0592 87.6804 14.5343 86.1419 14.5343C84.6034 14.5343 83.3304 15.0592 82.2807 16.115C81.2731 17.1226 80.7422 18.4438 80.7422 20.0668Z" fill="#CEF521"/>
<path d="M4.21714 27.9265V39.9989H-5.34058e-05V20.198C-5.34058e-05 17.1694 0.965256 14.7983 2.85364 13.0849C4.74203 11.3715 7.02257 10.4967 9.61684 10.4967C12.2111 10.4967 14.5761 11.4197 16.4223 13.3081C18.3107 15.1965 19.2337 17.4348 19.2337 20.0713C19.2337 22.7078 18.3107 24.9884 16.4705 26.8767C14.6244 28.7229 12.3438 29.646 9.62287 29.646C7.55952 29.646 5.58064 28.9461 4.83856 28.373L4.22317 27.9326L4.21714 27.9265ZM9.61684 14.5329C6.49768 14.5329 4.21714 16.9039 4.21714 20.0653C4.21714 23.2267 6.58818 25.5977 9.61684 25.5977C12.6455 25.5977 15.0165 23.2689 15.0165 20.0653C15.0165 16.8617 12.6455 14.5329 9.61684 14.5329Z" fill="#CEF521"/>
<path d="M26.1546 29.4178H21.9856V18.2624C21.9856 12.8627 25.0143 10.7089 29.0987 10.7089H30.1063V14.7511H29.3159C27.2104 14.7511 26.1546 15.9396 26.1546 18.2624V29.4178Z" fill="#CEF521"/>
</g>
<defs>
<clipPath id="clip0_136_7138">
<rect width="95.7164" height="40" fill="white"/>
</clipPath>
</defs>
</svg>
