<svg width="192" height="80" viewBox="0 0 192 80" fill="none" xmlns="http://www.w3.org/2000/svg">
<g opacity="0.5">
<path d="M117.185 0V24.411C117.45 24.1456 117.885 23.8801 118.415 23.5302C119.031 23.0958 120.262 22.5648 122.108 21.9494C123.954 21.334 125.969 20.9841 127.996 20.9841C133.439 20.9841 138.012 22.8303 141.692 26.6072C145.385 30.2996 147.219 34.7764 147.219 40.134C147.219 45.4916 145.373 49.8839 141.596 53.6608C137.903 57.4377 133.342 59.2839 127.984 59.2839C122.627 59.2839 118.234 57.5222 114.458 54.1073C110.681 50.6803 108.75 45.9381 108.75 39.8806V0H117.185ZM127.984 29.0688C121.927 29.0688 117.185 33.7266 117.185 40.134C117.185 46.5415 121.746 51.1992 127.984 51.1992C134.223 51.1992 138.784 46.457 138.784 40.134C138.784 33.811 134.042 29.0688 127.984 29.0688Z" fill="#FAFAFA"/>
<path d="M70.1348 26.6075C73.9117 22.8306 78.3885 20.9844 83.7461 20.9844C89.1038 20.9844 93.4961 22.8306 97.2729 26.6075C101.05 30.3844 102.896 34.8611 102.896 40.1343C102.896 45.4075 101.05 49.9687 97.2729 53.7456C93.4961 57.438 89.0193 59.2842 83.7461 59.2842C78.473 59.2842 73.9117 57.438 70.1348 53.7456C66.3579 49.9687 64.5117 45.4919 64.5117 40.1343C64.5117 34.7767 66.3579 30.3844 70.1348 26.6075ZM72.9464 40.1343C72.9464 43.3803 73.9962 46.0229 76.0234 48.1225C78.1351 50.1376 80.6812 51.1995 83.7461 51.1995C86.8111 51.1995 89.3692 50.1497 91.3844 48.1225C93.496 46.0108 94.5459 43.3803 94.5459 40.1343C94.5459 36.8883 93.496 34.2457 91.3844 32.2306C89.3692 30.1189 86.8231 29.0691 83.7461 29.0691C80.6691 29.0691 78.123 30.1189 76.0234 32.2306C74.0082 34.2457 72.9464 36.8883 72.9464 40.1343Z" fill="#FAFAFA"/>
<path d="M158.688 26.6075C162.464 22.8306 166.941 20.9844 172.299 20.9844C177.656 20.9844 182.049 22.8306 185.826 26.6075C189.603 30.3844 191.449 34.8611 191.449 40.1343C191.449 45.4075 189.603 49.9687 185.826 53.7456C182.049 57.438 177.572 59.2842 172.299 59.2842C167.026 59.2842 162.464 57.438 158.688 53.7456C154.911 49.9687 153.064 45.4919 153.064 40.1343C153.064 34.7767 154.911 30.3844 158.688 26.6075ZM161.499 40.1343C161.499 43.3803 162.549 46.0229 164.576 48.1225C166.688 50.1376 169.234 51.1995 172.299 51.1995C175.364 51.1995 177.922 50.1497 179.937 48.1225C182.049 46.0108 183.099 43.3803 183.099 40.1343C183.099 36.8883 182.049 34.2457 179.937 32.2306C177.922 30.1189 175.376 29.0691 172.299 29.0691C169.222 29.0691 166.676 30.1189 164.576 32.2306C162.561 34.2457 161.499 36.8883 161.499 40.1343Z" fill="#FAFAFA"/>
<path d="M8.43466 55.8545V80.0001H0V40.397C0 34.3395 1.93068 29.5972 5.70757 26.1703C9.48447 22.7433 14.0457 20.9937 19.2344 20.9937C24.4231 20.9937 29.1533 22.8399 32.8457 26.6168C36.6226 30.3937 38.4688 34.8704 38.4688 40.1436C38.4688 45.4168 36.6226 49.978 32.9422 53.7549C29.2498 57.4473 24.6886 59.2935 19.2465 59.2935C15.1196 59.2935 11.1617 57.8938 9.67754 56.7474L8.44673 55.8666L8.43466 55.8545ZM19.2344 29.0663C12.9959 29.0663 8.43466 33.8085 8.43466 40.1315C8.43466 46.4545 13.1769 51.1967 19.2344 51.1967C25.2919 51.1967 30.0341 46.539 30.0341 40.1315C30.0341 33.7241 25.2919 29.0663 19.2344 29.0663Z" fill="#FAFAFA"/>
<path d="M52.303 58.8379H43.9648V36.5265C43.9648 25.7268 50.0224 21.4189 58.1915 21.4189H60.2067V29.5037H58.6259C54.4147 29.5037 52.303 31.8808 52.303 36.5265V58.8379Z" fill="#FAFAFA"/>
</g>
</svg>
