<svg width="56" height="56" viewBox="0 0 56 56" fill="none" xmlns="http://www.w3.org/2000/svg">
<g clip-path="url(#clip0_404_701)">
<rect width="59.7333" height="59.7333" transform="translate(-1.80957 -1.86658)" fill="#101E1C"/>
<path d="M44.4622 15.4987C51.2218 25.695 29.9733 48.2098 -5.49334 26.5565" stroke="#E6FF03" stroke-width="7.96444"/>
<path d="M44.4622 15.4987C51.2218 25.695 29.9733 48.2098 -5.49334 26.5565" stroke="url(#paint0_linear_404_701)" stroke-width="7.96444"/>
<path d="M41.0869 17.6096C42.2542 19.4746 44.7115 20.0413 46.5755 18.8756C48.4395 17.7098 49.0044 15.2529 47.8371 13.388L41.0869 17.6096ZM18.2754 60.6544L22.1399 59.6962C16.4216 36.7026 21.6131 24.8345 27.3751 19.6705C30.3363 17.0166 33.629 15.9173 36.2972 15.8616C39.1069 15.8031 40.6057 16.8409 41.0869 17.6096L44.462 15.4988L47.8371 13.388C45.3591 9.42899 40.6272 7.80512 36.1249 7.89897C31.481 7.99577 26.3803 9.86293 22.0569 13.7376C13.2495 21.6309 8.30698 37.0684 14.4109 61.6125L18.2754 60.6544Z" fill="#E6FF03"/>
</g>
<defs>
<linearGradient id="paint0_linear_404_701" x1="40.3555" y1="32.353" x2="-3.37781" y2="32.353" gradientUnits="userSpaceOnUse">
<stop stop-color="#101E1C" stop-opacity="0"/>
<stop offset="1" stop-color="#101E1C"/>
</linearGradient>
<clipPath id="clip0_404_701">
<rect width="59.7333" height="59.7333" fill="white" transform="translate(-1.80957 -1.86658)"/>
</clipPath>
</defs>
</svg>
