<svg width="90" height="23" viewBox="0 0 90 23" fill="none" xmlns="http://www.w3.org/2000/svg">
<g clip-path="url(#clip0_2580_5252)">
<path d="M1.53494 9.05379H10.3555V11.5327L7.04776 11.7914C1.68627 12.1794 0 13.5805 0 17.5468V18.3443C0 21.2544 2.03218 23.0004 5.16692 23.0004C7.65309 23.0004 9.05832 22.4184 10.8095 20.6292H11.0905V22.5261H14.6144V5.19531H1.53494V9.05379ZM10.3555 17.3959C9.25289 18.4952 7.63148 19.2066 6.26948 19.2066C4.82102 19.2066 4.19407 18.6677 4.23731 17.4605C4.28054 15.7792 4.88587 15.3912 7.69633 15.1325L10.3555 14.8739C10.3555 14.8954 10.3555 17.3959 10.3555 17.3959Z" fill="#FCFDFC"/>
<path d="M84.3564 12.1802L81.7405 11.9216C80.2921 11.7707 79.9245 11.4042 79.9245 10.2402C79.9245 8.92532 80.4434 8.60198 82.4756 8.60198C84.2916 8.60198 84.8104 8.8822 85.0698 10.1324H89.1558C89.0477 5.99373 87.7722 4.9375 82.7134 4.9375C77.1789 4.9375 75.7953 5.99373 75.7953 10.2402C75.7953 14.1203 76.8114 15.1765 80.9406 15.586L83.1025 15.8016C85.0266 15.9741 85.5022 16.3405 85.5022 17.5045C85.5022 18.9272 84.9185 19.2936 82.562 19.2936C80.4866 19.2936 79.9462 18.9703 79.8381 17.6123H75.7305C75.8386 21.9019 77.1573 23.0012 82.3891 23.0012C88.2262 23.0012 89.6747 21.8372 89.6747 17.1165C89.6098 13.6029 88.5505 12.5682 84.3564 12.1802Z" fill="#FCFDFC"/>
<path d="M62.5002 12.5036C62.5002 6.89907 60.5761 4.9375 55.02 4.9375C49.464 4.9375 47.4102 7.48108 47.4102 13.7969C47.4102 20.6948 49.3126 23.0012 55.4308 23.0012C59.841 23.0012 61.7003 21.6648 62.3272 17.871H58.1331C57.6575 19.035 57.1603 19.2936 55.3659 19.2936C52.6636 19.2936 51.9717 18.5392 51.8204 15.3058H62.1975C62.3921 14.3574 62.5002 13.2365 62.5002 12.5036ZM51.8636 11.8785C51.9069 9.44265 52.8797 8.53731 55.2146 8.53731C57.5494 8.53731 58.3493 9.44265 58.4142 11.8785H51.8636Z" fill="#FCFDFC"/>
<path d="M29.0128 5.19494H22.2028V0H17.8574V22.5258H22.2028V9.07498H28.3858V22.5258H32.7312V8.73008H29.0128V5.19494Z" fill="#FCFDFC"/>
<path d="M64.9434 5.94939V22.5258H69.2888V8.90253H74.4989V5.19494H69.2888V4.72071C69.332 3.70759 69.5698 3.40581 70.4129 3.40581H75.1475V0H70.0454C66.5864 0 64.9434 1.05623 64.9434 5.94939Z" fill="#FCFDFC"/>
<path d="M35.9297 22.5261H40.2751V9.26935H46.7175V5.19531H35.9297V22.5261Z" fill="#FCFDFC"/>
</g>
<defs>
<clipPath id="clip0_2580_5252">
<rect width="89.6104" height="23" fill="white"/>
</clipPath>
</defs>
</svg>
