<svg width="6" height="15" viewBox="0 0 6 15" fill="none" xmlns="http://www.w3.org/2000/svg">
<path d="M5.9996 11.9504C5.9996 13.3647 4.26202 14.5112 2.14054 14.5112C2.76556 13.8281 3.19533 12.9705 3.19533 11.9516C3.19533 10.9315 2.76456 10.0731 2.13836 9.38959C4.25984 9.38959 5.9996 10.5361 5.9996 11.9504Z" fill="#6A7270"/>
<path d="M3.43875 2.56085C3.43875 3.97517 2.29221 5.12171 0.877893 5.12171C0.569492 5.12171 0.273824 5.06719 0 4.96727C0.403836 4.25698 0.634478 3.43538 0.634478 2.5599C0.634478 1.68507 0.404177 0.864036 0.000895946 0.154107C0.274469 0.0543948 0.569829 0 0.877893 0C2.29221 0 3.43875 1.14653 3.43875 2.56085Z" fill="#6A7270"/>
</svg>
