<svg width="17" height="17" viewBox="0 0 17 17" fill="none" xmlns="http://www.w3.org/2000/svg">
<path fill-rule="evenodd" clip-rule="evenodd" d="M10.2 17H6.80002C3.59446 17 1.99168 17 0.995839 16.0042C0 15.0084 0 13.4056 0 10.2V6.80002C0 3.59446 0 1.99168 0.995839 0.995839C1.99168 0 3.6029 0 6.82534 0C7.34045 0 7.75321 -3.61931e-07 8.10053 0.014162C8.08909 0.0821041 8.0831 0.151409 8.08287 0.221481L8.07502 2.63073C8.07494 3.56327 8.07488 4.38741 8.16419 5.0517C8.261 5.77175 8.48328 6.49169 9.07086 7.07927C9.65844 7.66685 10.3784 7.88913 11.0984 7.98594C11.7627 8.07525 12.5869 8.07519 13.5194 8.07512L13.6 8.07511H16.9638C17 8.52924 17 9.0866 17 9.82849V10.2C17 13.4056 17 15.0084 16.0042 16.0042C15.0084 17 13.4056 17 10.2 17ZM2.76251 10.625C2.76251 10.2729 3.04793 9.98752 3.40001 9.98752H10.2C10.5521 9.98752 10.8375 10.2729 10.8375 10.625C10.8375 10.9771 10.5521 11.2625 10.2 11.2625H3.40001C3.04793 11.2625 2.76251 10.9771 2.76251 10.625ZM2.76251 13.6C2.76251 13.248 3.04793 12.9625 3.40001 12.9625H8.07502C8.4271 12.9625 8.71252 13.248 8.71252 13.6C8.71252 13.9521 8.4271 14.2375 8.07502 14.2375H3.40001C3.04793 14.2375 2.76251 13.9521 2.76251 13.6Z" fill="#6A7270"/>
<path d="M14.749 4.77417L11.384 1.74569C10.4253 0.88288 9.946 0.451473 9.35786 0.225782L9.35002 2.5501C9.35002 4.55357 9.35002 5.55531 9.97242 6.17771C10.5948 6.80011 11.5966 6.80011 13.6 6.80011H16.6431C16.3349 6.20152 15.7832 5.70491 14.749 4.77417Z" fill="#6A7270"/>
</svg>
