<svg width="16" height="17" viewBox="0 0 16 17" fill="none" xmlns="http://www.w3.org/2000/svg">
<path fill-rule="evenodd" clip-rule="evenodd" d="M9.49755 0.128198C9.1857 0 8.79036 0 7.99967 0C7.20898 0 6.81364 0 6.50179 0.128198C6.08598 0.299128 5.75563 0.626986 5.5834 1.03965C5.50477 1.22803 5.47401 1.4471 5.46197 1.76666C5.44427 2.23627 5.2016 2.67096 4.79152 2.90593C4.38144 3.14089 3.8808 3.13212 3.46216 2.91252C3.17728 2.76309 2.97073 2.67999 2.76704 2.65338C2.32082 2.59508 1.86955 2.71508 1.51249 2.98699C1.2447 3.19093 1.04702 3.53072 0.651681 4.2103C0.256338 4.88988 0.0586662 5.22967 0.0146074 5.5618C-0.0441375 6.00464 0.0767809 6.4525 0.350762 6.80686C0.475816 6.9686 0.651572 7.10457 0.924344 7.27467C1.32535 7.52473 1.58336 7.95071 1.58334 8.42073C1.58331 8.89069 1.32531 9.31661 0.924342 9.56664C0.651524 9.73676 0.475746 9.87274 0.350679 10.0345C0.0766978 10.3889 -0.0442206 10.8367 0.0145244 11.2796C0.0585831 11.6117 0.256255 11.9515 0.651598 12.6311C1.04694 13.3106 1.24461 13.6504 1.51241 13.8544C1.86947 14.1263 2.32074 14.2463 2.76695 14.188C2.97064 14.1614 3.17718 14.0783 3.46203 13.9289C3.8807 13.7093 4.38138 13.7005 4.79148 13.9355C5.20159 14.1704 5.44427 14.6052 5.46197 15.0748C5.47401 15.3943 5.50478 15.6134 5.5834 15.8018C5.75563 16.2144 6.08598 16.5423 6.50179 16.7132C6.81364 16.8414 7.20898 16.8414 7.99967 16.8414C8.79036 16.8414 9.1857 16.8414 9.49755 16.7132C9.91336 16.5423 10.2437 16.2144 10.4159 15.8018C10.4946 15.6134 10.5253 15.3943 10.5374 15.0747C10.5551 14.6051 10.7977 14.1704 11.2078 13.9355C11.6179 13.7004 12.1186 13.7092 12.5373 13.9288C12.8221 14.0782 13.0286 14.1613 13.2323 14.1879C13.6785 14.2462 14.1298 14.1262 14.4869 13.8543C14.7546 13.6504 14.9523 13.3106 15.3477 12.631C15.743 11.9514 15.9407 11.6116 15.9847 11.2795C16.0435 10.8367 15.9226 10.3888 15.6486 10.0344C15.5235 9.87268 15.3477 9.73671 15.0749 9.5666C14.674 9.31656 14.416 8.89061 14.416 8.42063C14.416 7.9507 14.674 7.52481 15.075 7.27481C15.3478 7.10467 15.5236 6.96869 15.6487 6.80692C15.9226 6.45256 16.0436 6.0047 15.9848 5.56185C15.9408 5.22972 15.7431 4.88993 15.3477 4.21035C14.9524 3.53077 14.7547 3.19098 14.4869 2.98705C14.1299 2.71514 13.6786 2.59514 13.2324 2.65344C13.0287 2.68005 12.8222 2.76313 12.5373 2.91255C12.1186 3.13216 11.618 3.14094 11.2079 2.90595C10.7978 2.67097 10.5551 2.23625 10.5374 1.76661C10.5253 1.44708 10.4946 1.22802 10.4159 1.03965C10.2437 0.626986 9.91336 0.299128 9.49755 0.128198ZM7.99967 10.9469C9.40548 10.9469 10.5451 9.81589 10.5451 8.42071C10.5451 7.02552 9.40548 5.89449 7.99967 5.89449C6.59386 5.89449 5.45422 7.02552 5.45422 8.42071C5.45422 9.81589 6.59386 10.9469 7.99967 10.9469Z" fill="#6A7270"/>
</svg>
