<svg width="12" height="16" viewBox="0 0 12 16" fill="none" xmlns="http://www.w3.org/2000/svg">
<path d="M5.71668 0.0499022C5.47364 -0.056656 5.23426 0.017889 5.08027 0.174714C4.93069 0.327051 4.85587 0.559554 4.90833 0.793971C4.99112 1.16398 5.03484 1.54894 5.03484 1.94436C5.03484 2.84714 4.80731 3.47944 4.41581 4.0036C4.01782 4.53644 3.44172 4.97024 2.71433 5.4597C2.7029 5.46739 2.69225 5.4762 2.68254 5.48598L2.59444 5.57476C1.03378 6.58303 0 8.3386 0 10.3358C0 13.464 2.53595 16 5.6642 16C8.79244 16 11.3284 13.464 11.3284 10.3358C11.3284 9.41728 11.1096 8.54928 10.7211 7.78161C10.6895 7.71916 10.6289 7.67659 10.5594 7.6681C10.4899 7.65961 10.4208 7.68633 10.3751 7.73933C10.3159 7.80794 10.258 7.87564 10.2009 7.94235C9.46389 8.80346 8.86912 9.49839 7.64973 9.8088C7.59788 9.822 7.56567 9.81219 7.54281 9.79791C7.5159 9.7811 7.48647 9.74755 7.4663 9.69395C7.42427 9.58223 7.44231 9.43977 7.52843 9.3464C8.1806 8.63934 8.64389 7.67954 8.80944 6.31416C9.11955 3.75654 7.95714 1.0322 5.71668 0.0499022Z" fill="#6A7270"/>
</svg>
