<svg width="37" height="54" viewBox="0 0 37 54" fill="none" xmlns="http://www.w3.org/2000/svg">
<path d="M29.5374 9.76561C30.7108 11.6403 33.1811 12.2101 35.0549 11.0382C36.9287 9.8663 37.4965 7.39652 36.3231 5.52178L29.5374 9.76561ZM6.60583 53.0368L10.4907 52.0736C4.74227 28.959 9.96116 17.0285 15.7534 11.8373C18.7302 9.16947 22.0403 8.06432 24.7225 8.0084C27.547 7.94953 29.0537 8.9928 29.5374 9.76561L32.9302 7.6437L36.3231 5.52178C33.832 1.54192 29.0752 -0.0904944 24.5492 0.00385017C19.8809 0.101162 14.7534 1.97814 10.4072 5.87323C1.55356 13.808 -3.415 29.3267 2.72101 54L6.60583 53.0368Z" fill="#E6FF03"/>
</svg>
