<svg width="16" height="9" viewBox="0 0 16 9" fill="none" xmlns="http://www.w3.org/2000/svg">
<path d="M0.94898 1.41922C0.793716 1.72874 0.717354 2.11055 0.56463 2.87417L0.0518394 5.43812C-0.272849 7.06156 0.968867 8.57621 2.62446 8.57621C3.97232 8.57621 5.10089 7.55487 5.23501 6.2137L5.2942 5.62184C5.15433 7.20728 6.40398 8.57621 8.00024 8.57621C9.60737 8.57621 10.8632 7.18859 10.7032 5.58943L10.7658 6.2137C10.9 7.55487 12.0285 8.57621 13.3764 8.57621C15.032 8.57621 16.2737 7.06156 15.949 5.43812L15.4362 2.87417C15.2835 2.11056 15.2071 1.72873 15.0519 1.41922C14.7247 0.76705 14.136 0.284452 13.4324 0.0915488C13.0984 0 12.709 0 11.9303 0H10.1443H4.07055C3.29181 0 2.90244 0 2.56848 0.0915488C1.86481 0.284452 1.27614 0.76705 0.94898 1.41922Z" fill="#6A7270"/>
</svg>
