<svg width="15" height="9" viewBox="0 0 15 9" fill="none" xmlns="http://www.w3.org/2000/svg">
<path d="M13.0316 1.08378C13.7527 1.08378 14.4225 0.896416 15.0007 0.571081V1.52499C15.0007 4.85271 15.0007 6.51656 13.9669 7.55035C13.1347 8.38252 11.8943 8.54482 9.70633 8.57647V5.49579C9.70633 4.67109 9.70633 4.25874 9.529 3.9516C9.41283 3.75039 9.24575 3.5833 9.04453 3.46713C8.73739 3.2898 8.32504 3.2898 7.50034 3.2898C6.67565 3.2898 6.2633 3.2898 5.95616 3.46713C5.75495 3.5833 5.58786 3.75039 5.47169 3.9516C5.29436 4.25874 5.29436 4.67109 5.29436 5.49579V8.57647C3.10641 8.54482 1.86596 8.38252 1.03379 7.55035C0 6.51656 0 4.85271 0 1.52499V0.571052C0.578176 0.896404 1.24805 1.08378 1.96912 1.08378C3.02541 1.08378 3.99386 0.674716 4.71582 0.000180926C5.44585 0.670922 6.42072 1.08378 7.50018 1.08378C8.5797 1.08378 9.55466 0.670832 10.2847 0C11.0067 0.674642 11.9752 1.08378 13.0316 1.08378Z" fill="#6A7270"/>
</svg>
