<svg xmlns="http://www.w3.org/2000/svg" width="82" height="24" fill="none" viewBox="0 0 82 24"><path fill="#0b996e" d="M66.587 14.86c0-3.633 2.3-6.188 5.57-6.188s5.606 2.554 5.606 6.188c0 3.636-2.335 6.045-5.606 6.045s-5.57-2.52-5.57-6.045m-3.414 0c0 5.362 3.738 9.14 8.984 9.14s9.02-3.778 9.02-9.14c0-5.36-3.738-9.282-9.02-9.282-5.283 0-8.984 3.85-8.984 9.282M45.745 5.794l7.043 17.99h3.307l7.043-17.99h-3.557l-5.103 13.89h-.072l-5.103-13.89zm-13.692 8.42c.215-3.312 2.408-5.541 5.39-5.541 2.587 0 4.528 1.655 4.816 4.138h-5.966c-2.12 0-3.27.252-4.132 1.404zm-3.413.539c0 5.361 3.773 9.247 8.983 9.247 3.522 0 6.611-1.8 7.94-4.643l-2.873-1.44c-1.006 1.872-2.947 2.987-5.067 2.987-2.552 0-4.852-1.943-4.852-3.814 0-.971.647-1.404 1.581-1.404h11.391v-.97c0-5.398-3.45-9.14-8.408-9.14s-8.696 3.85-8.696 9.176m-9.774 9.03H22.1V12.737c0-2.374 1.472-4.066 3.521-4.066.863 0 1.76.288 2.193.683.324-.864.826-1.726 1.58-2.59-.862-.72-2.334-1.188-3.772-1.188-3.953 0-6.757 2.95-6.757 7.16zM3.235 11.874v-8.78h5.318c1.796 0 2.982 1.043 2.982 2.626 0 1.799-1.544 3.166-4.707 4.21-2.156.682-3.125 1.258-3.485 1.943zm0 8.816v-3.67c0-1.62 1.365-3.202 3.27-3.814 1.69-.576 3.09-1.152 4.276-1.763 1.581.936 2.55 2.554 2.55 4.246 0 2.878-2.73 5-6.432 5zM0 23.783h7.187c5.463 0 9.558-3.418 9.558-7.951 0-2.483-1.257-4.713-3.486-6.153 1.15-1.152 1.69-2.483 1.69-4.102C14.949 2.23 12.54 0 8.912 0H0z"/></svg>