<svg xmlns="http://www.w3.org/2000/svg" viewBox="0 0 800 400">
  <!-- Background gradient -->
  <defs>
    <linearGradient id="bgGradient" x1="0%" y1="0%" x2="0%" y2="100%">
      <stop offset="0%" style="stop-color:#1a2e14;stop-opacity:1" />
      <stop offset="100%" style="stop-color:#90c767;stop-opacity:1" />
    </linearGradient>
    
    <!-- Meerkat shadow gradient -->
    <radialGradient id="shadowGradient" cx="50%" cy="50%" r="50%" fx="50%" fy="50%">
      <stop offset="0%" style="stop-color:rgba(0,0,0,0.3)" />
      <stop offset="100%" style="stop-color:rgba(0,0,0,0)" />
    </radialGradient>
  </defs>

  <!-- Main background -->
  <rect width="800" height="400" fill="url(#bgGradient)" rx="20" />

  <!-- Decorative circles -->
  <circle cx="100" cy="100" r="80" fill="rgba(255,255,255,0.1)" />
  <circle cx="700" cy="300" r="60" fill="rgba(255,255,255,0.1)" />

  <!-- Content placeholder lines -->
  <rect x="200" y="100" width="400" height="40" rx="8" fill="rgba(255,255,255,0.9)" />
  <rect x="200" y="160" width="300" height="20" rx="6" fill="rgba(255,255,255,0.7)" />
  <rect x="200" y="190" width="250" height="20" rx="6" fill="rgba(255,255,255,0.7)" />

  <!-- Meerkat character (simplified) -->
  <ellipse cx="400" cy="380" rx="40" ry="10" fill="url(#shadowGradient)" />
  <path d="M380 300 Q400 250 420 300 L420 350 L380 350 Z" fill="#f0f0f0" />
  <circle cx="400" cy="270" r="25" fill="#f0f0f0" />
  <circle cx="393" cy="265" r="6" fill="#333" />
  <circle cx="407" cy="265" r="6" fill="#333" />
  <path d="M400 275 Q400 285 400 280" stroke="#666" fill="none" stroke-width="2" />
</svg>