<svg xmlns="http://www.w3.org/2000/svg" xml:space="preserve" viewBox="0 0 60 60"><path fill="#141e12" d="M30 2c15.464 0 28 12.536 28 28 0 15.297-12.267 27.726-27.5 27.993V58h-1v-.007C14.267 57.726 2 45.297 2 30 2 14.536 14.536 2 30 2m.5 17h-1V3.021c-3.155.256-6.23 2.923-8.61 7.631-1.198 2.373-2.182 5.2-2.878 8.348h-1.023c1.518-7.024 4.445-12.571 8.077-15.248C16.108 6.52 9.203 16.649 8.912 29.177H11v1H8.904c.064 12.824 7.05 23.255 16.162 26.07-3.803-2.803-6.831-8.751-8.28-16.247h1.018c.701 3.551 1.763 6.727 3.087 9.348 2.378 4.708 5.454 7.374 8.609 7.63V40h1v16.978c3.155-.256 6.232-2.922 8.61-7.63 1.324-2.621 2.385-5.797 3.086-9.348h1.018c-1.449 7.496-4.477 13.444-8.28 16.247 9.112-2.815 16.099-13.246 16.163-26.07H49v-1h2.088c-.29-12.528-7.196-22.657-16.154-25.425 3.632 2.677 6.56 8.224 8.077 15.248h-1.023c-.696-3.149-1.68-5.975-2.878-8.348-2.378-4.708-5.455-7.375-8.61-7.63zM3.002 30.177c.074 11.478 7.31 21.255 17.463 25.089-7.392-4.487-12.507-14.027-12.56-25.09zm49.09.546c-.217 10.83-5.289 20.13-12.56 24.543 10.155-3.834 17.392-13.61 17.466-25.09h-4.901zM20.465 4.733C10.502 8.495 3.349 17.98 3.014 29.177h4.898C8.158 18.39 13.217 9.132 20.465 4.733m19.07.001c7.247 4.4 12.307 13.656 12.553 24.443h4.898c-.335-11.198-7.488-20.68-17.45-24.443"/><path fill="#141e12" d="M19.237 37.72v-1.54h-3.61v-.78l3.55-4.78h.92v4.72h.88v.84h-.88v1.54zm-2.57-2.38h2.57v-3.4zm5.412 2.38q0-.75.23-1.35.24-.61.83-1.16.6-.55 1.66-1.11.49-.261.79-.48.3-.22.44-.47t.14-.61q0-.37-.16-.64a1.1 1.1 0 0 0-.48-.44q-.309-.16-.78-.16-.75 0-1.19.39-.429.39-.54 1.11l-.9-.06q.12-1.04.8-1.66.681-.62 1.83-.62.73 0 1.25.26t.79.73q.28.46.28 1.07 0 .54-.18.94-.18.39-.61.73-.42.34-1.16.73-.96.51-1.46 1.03-.49.519-.52.93h3.93v.84zm8.804.16q-.86 0-1.49-.45c-.63-.45-.746-.727-.98-1.28q-.34-.83-.34-1.97t.34-1.97q.35-.84.98-1.29.63-.46 1.49-.46.87 0 1.5.46.63.45.97 1.28.35.83.35 1.98 0 1.14-.35 1.97-.34.83-.97 1.28t-1.5.45m0-.84q.92 0 1.42-.74.5-.75.5-2.12 0-.921-.23-1.56-.22-.65-.65-.98-.42-.34-1.04-.34-.61 0-1.04.34-.42.33-.65.98-.22.639-.22 1.56 0 1.37.5 2.12.501.74 1.41.74m6.631.84q-.86 0-1.49-.45t-.98-1.28q-.34-.83-.34-1.97t.34-1.97q.35-.84.98-1.29.63-.46 1.49-.46.87 0 1.5.46.63.45.97 1.28.35.83.35 1.98 0 1.14-.35 1.97-.34.83-.97 1.28t-1.5.45m0-.84q.92 0 1.42-.74.5-.75.5-2.12 0-.921-.23-1.56-.22-.65-.65-.98-.42-.34-1.04-.34-.61 0-1.04.34-.42.33-.65.98-.22.639-.22 1.56 0 1.37.5 2.12.5.74 1.41.74m5.201.68v-5.26h-1.48v-.74h.6q.39 0 .62-.1a.6.6 0 0 0 .34-.34q.1-.24.1-.66h.68v7.1zm-19.969-9.44v-7.1h.86v7.1zm4.999.16q-.82 0-1.43-.31a2.5 2.5 0 0 1-.97-.85 2.75 2.75 0 0 1-.41-1.27l.9-.06q.07.531.31.9.24.37.64.56.41.19.98.19.5 0 .85-.13t.53-.38a.98.98 0 0 0 .19-.61q0-.33-.16-.58-.15-.26-.59-.47-.43-.22-1.28-.43-.82-.21-1.31-.46-.48-.25-.7-.61-.21-.36-.21-.89 0-.6.28-1.05a1.9 1.9 0 0 1 .82-.71q.53-.26 1.26-.26.78 0 1.34.3.56.29.89.8t.41 1.16l-.9.06a1.8 1.8 0 0 0-.28-.76 1.44 1.44 0 0 0-.58-.53q-.37-.19-.9-.19-.66 0-1.05.32a1 1 0 0 0-.39.82q0 .33.15.55.16.21.56.38.4.16 1.15.35.89.22 1.41.53.53.3.75.7.23.4.23.91 0 .621-.32 1.08-.32.45-.88.7a3.25 3.25 0 0 1-1.29.24m6.726 0q-1.01 0-1.74-.44-.72-.45-1.11-1.28t-.39-1.98.39-1.98q.39-.84 1.11-1.29.73-.45 1.74-.45 1.02 0 1.74.45.73.45 1.12 1.29.39.831.39 1.98t-.39 1.98a2.9 2.9 0 0 1-1.12 1.28q-.72.44-1.74.44m0-.84q.741 0 1.26-.34.531-.34.81-.98.28-.64.28-1.54t-.28-1.54q-.279-.65-.81-.99-.519-.35-1.26-.35-.729 0-1.26.35-.52.34-.8.99-.28.64-.28 1.54t.28 1.54.8.98q.531.34 1.26.34"/></svg>