<svg xmlns="http://www.w3.org/2000/svg" xml:space="preserve" viewBox="0 0 60 60"><path fill="none" stroke="#141e12" d="M53.749 16.288v27.423L30 57.423 6.251 43.71V16.288L30 2.576z"/><path fill="#141e12" d="M29.909 9.47a.1.1 0 0 1 .182 0l.368.81a.1.1 0 0 0 .08.059l.885.099a.1.1 0 0 1 .056.173l-.658.6a.1.1 0 0 0-.03.094l.18.873a.1.1 0 0 1-.148.107l-.775-.44a.1.1 0 0 0-.098 0l-.775.44a.1.1 0 0 1-.147-.107l.18-.873a.1.1 0 0 0-.031-.094l-.658-.6a.1.1 0 0 1 .056-.173l.885-.1a.1.1 0 0 0 .08-.057zm0 38.21a.1.1 0 0 1 .182 0l.368.812a.1.1 0 0 0 .08.058l.885.099a.1.1 0 0 1 .056.173l-.658.6a.1.1 0 0 0-.03.095l.18.872a.1.1 0 0 1-.148.107l-.775-.44a.1.1 0 0 0-.098 0l-.775.44a.1.1 0 0 1-.147-.107l.18-.872a.1.1 0 0 0-.031-.094l-.658-.6a.1.1 0 0 1 .056-.174l.885-.1a.1.1 0 0 0 .08-.057zM19.756 12.557a.1.1 0 0 1 .157-.09l.724.518a.1.1 0 0 0 .099.01l.816-.356a.1.1 0 0 1 .135.121l-.27.85a.1.1 0 0 0 .021.096l.592.666a.1.1 0 0 1-.074.166l-.891.006a.1.1 0 0 0-.086.05l-.45.768a.1.1 0 0 1-.181-.02l-.281-.844a.1.1 0 0 0-.074-.066l-.87-.191a.1.1 0 0 1-.038-.179l.717-.528a.1.1 0 0 0 .04-.09zm-7.25 7.751a.1.1 0 0 1 .091-.157l.887.087a.1.1 0 0 0 .09-.04l.529-.717a.1.1 0 0 1 .178.037l.19.87a.1.1 0 0 0 .067.074l.845.28a.1.1 0 0 1 .02.182l-.77.45a.1.1 0 0 0-.049.086l-.006.89a.1.1 0 0 1-.166.075l-.666-.592a.1.1 0 0 0-.097-.02l-.849.27a.1.1 0 0 1-.121-.136l.356-.816a.1.1 0 0 0-.01-.099zm-2.402 10.338a.1.1 0 0 1 0-.183l.811-.367a.1.1 0 0 0 .058-.08l.1-.885a.1.1 0 0 1 .173-.057l.6.658a.1.1 0 0 0 .094.03l.872-.179a.1.1 0 0 1 .107.148l-.44.774a.1.1 0 0 0 0 .099l.44.774a.1.1 0 0 1-.107.148l-.872-.18a.1.1 0 0 0-.094.03l-.6.659a.1.1 0 0 1-.174-.057l-.099-.885a.1.1 0 0 0-.058-.08zm3.088 10.153a.1.1 0 0 1-.091-.158l.518-.724a.1.1 0 0 0 .01-.098l-.356-.816a.1.1 0 0 1 .122-.136l.849.27a.1.1 0 0 0 .096-.02l.666-.592a.1.1 0 0 1 .167.074l.006.89a.1.1 0 0 0 .05.086l.768.45a.1.1 0 0 1-.02.182l-.845.28a.1.1 0 0 0-.066.074l-.19.87a.1.1 0 0 1-.18.038l-.528-.717a.1.1 0 0 0-.09-.04zm7.751 7.249a.1.1 0 0 1-.158-.09l.087-.887a.1.1 0 0 0-.04-.09l-.717-.529a.1.1 0 0 1 .038-.178l.87-.191a.1.1 0 0 0 .073-.066l.281-.846a.1.1 0 0 1 .181-.019l.45.769a.1.1 0 0 0 .087.049l.89.006a.1.1 0 0 1 .074.167l-.591.666a.1.1 0 0 0-.02.096l.269.849a.1.1 0 0 1-.136.122l-.816-.357a.1.1 0 0 0-.098.01zm19.215-34.604a.1.1 0 0 0 .04.09l.717.528a.1.1 0 0 1-.038.179l-.87.19a.1.1 0 0 0-.073.067l-.281.845a.1.1 0 0 1-.182.019l-.45-.768a.1.1 0 0 0-.086-.05l-.89-.006a.1.1 0 0 1-.074-.166l.59-.666a.1.1 0 0 0 .021-.097l-.269-.849a.1.1 0 0 1 .135-.121l.816.356a.1.1 0 0 0 .099-.01l.724-.519a.1.1 0 0 1 .158.091zm6.817 7.588a.1.1 0 0 0-.01.099l.357.816a.1.1 0 0 1-.122.135l-.85-.27a.1.1 0 0 0-.096.021l-.666.592a.1.1 0 0 1-.166-.074l-.006-.891a.1.1 0 0 0-.05-.086l-.768-.45a.1.1 0 0 1 .02-.181l.844-.281a.1.1 0 0 0 .066-.074l.191-.87a.1.1 0 0 1 .179-.037l.528.716a.1.1 0 0 0 .09.04l.887-.086a.1.1 0 0 1 .09.157zm2.11 9.981a.1.1 0 0 0-.058.08l-.1.885a.1.1 0 0 1-.172.057l-.6-.658a.1.1 0 0 0-.095-.03l-.872.179a.1.1 0 0 1-.107-.148l.44-.774a.1.1 0 0 0 0-.099l-.44-.774a.1.1 0 0 1 .107-.148l.872.18a.1.1 0 0 0 .094-.031l.6-.658a.1.1 0 0 1 .174.056l.099.886a.1.1 0 0 0 .058.08l.811.367a.1.1 0 0 1 0 .182zm-3.163 9.699a.1.1 0 0 0-.09.04l-.529.717a.1.1 0 0 1-.178-.038l-.191-.87a.1.1 0 0 0-.066-.073l-.845-.281a.1.1 0 0 1-.02-.181l.769-.45a.1.1 0 0 0 .05-.086l.005-.891a.1.1 0 0 1 .167-.074l.666.591a.1.1 0 0 0 .096.02l.85-.269a.1.1 0 0 1 .121.136l-.357.816a.1.1 0 0 0 .01.098l.52.724a.1.1 0 0 1-.092.158zm-7.589 6.818a.1.1 0 0 0-.098-.01l-.816.356a.1.1 0 0 1-.136-.122l.27-.849a.1.1 0 0 0-.02-.096l-.592-.666a.1.1 0 0 1 .074-.167l.89-.006a.1.1 0 0 0 .086-.05l.45-.768a.1.1 0 0 1 .182.02l.281.845a.1.1 0 0 0 .073.066l.87.19a.1.1 0 0 1 .038.179l-.717.528a.1.1 0 0 0-.04.09l.087.887a.1.1 0 0 1-.158.091zM18.979 33.5v-7.1h1.22l3.51 6.24V26.4h.86v7.1h-1.28l-3.45-6.12v6.12zm7.236 0v-7.1h.86v7.1zm4.998.16q-.82 0-1.43-.31c-.61-.31-.73-.49-.97-.85a2.75 2.75 0 0 1-.41-1.27l.9-.06q.07.53.31.9c.24.37.374.433.64.56q.41.19.98.19.5 0 .85-.13c.35-.13.41-.213.53-.38a.98.98 0 0 0 .19-.61q0-.33-.16-.58-.15-.26-.59-.47-.43-.22-1.28-.43-.82-.21-1.31-.46-.48-.25-.7-.61-.21-.36-.21-.89 0-.6.28-1.05.29-.46.82-.71.531-.26 1.26-.26.78 0 1.34.3.56.29.89.8c.33.51.357.727.41 1.16l-.9.06a1.8 1.8 0 0 0-.28-.76q-.21-.34-.58-.53c-.37-.19-.546-.19-.9-.19q-.66 0-1.05.32a1 1 0 0 0-.39.82q0 .33.15.55.16.21.56.38.4.16 1.15.35.891.22 1.41.53.531.3.75.7.23.4.23.91 0 .62-.32 1.08-.32.45-.88.7a3.25 3.25 0 0 1-1.29.24m6.137-.16q0-.75.23-1.35.24-.61.83-1.16.6-.55 1.66-1.11.49-.26.79-.48c.3-.22.347-.303.44-.47s.14-.37.14-.61q0-.37-.16-.64a1.1 1.1 0 0 0-.48-.44q-.31-.16-.78-.16-.75 0-1.19.39-.43.39-.54 1.11l-.9-.06q.12-1.04.8-1.66c.68-.62 1.063-.62 1.83-.62q.73 0 1.25.26c.52.26.61.417.79.73q.28.46.28 1.07 0 .54-.18.94-.18.39-.61.73-.42.34-1.16.73-.96.51-1.46 1.03-.49.52-.52.93h3.93v.84z"/></svg>