<svg width="24" height="24" viewBox="0 0 24 24" fill="none" xmlns="http://www.w3.org/2000/svg">
<g clip-path="url(#clip0_1065_883)">
<path d="M18 0H6C2.68629 0 0 2.68629 0 6V18C0 21.3137 2.68629 24 6 24H18C21.3137 24 24 21.3137 24 18V6C24 2.68629 21.3137 0 18 0Z" fill="#00BCC5"/>
<path d="M11.9999 5.5C11.1719 5.49996 10.3672 5.77396 9.71126 6.27927C9.05532 6.78457 8.58506 7.49275 8.37383 8.29336C8.1626 9.09397 8.22229 9.94197 8.54357 10.7051C8.86486 11.4682 9.42968 12.1036 10.1499 12.512L8.98993 16.852C8.95946 16.9633 8.95509 17.0802 8.97718 17.1935C8.99927 17.3068 9.04721 17.4135 9.11727 17.5052C9.18733 17.597 9.27762 17.6713 9.38111 17.7224C9.4846 17.7735 9.5985 17.8001 9.71393 17.8H14.2859C14.4013 17.8002 14.5152 17.7738 14.6188 17.7228C14.7223 17.6718 14.8126 17.5975 14.8828 17.5059C14.9529 17.4143 15.001 17.3077 15.0232 17.1944C15.0455 17.0812 15.0412 16.9644 15.0109 16.853L13.8509 12.512C14.5713 12.1035 15.1361 11.4681 15.4574 10.7049C15.7787 9.94164 15.8383 9.09354 15.6269 8.29288C15.4155 7.49222 14.9451 6.78403 14.289 6.27881C13.6329 5.77358 12.828 5.49974 11.9999 5.5ZM11.9999 7.25C12.4352 7.25007 12.8585 7.39211 13.2057 7.65456C13.5528 7.91702 13.8049 8.28556 13.9237 8.70427C14.0425 9.12297 14.0214 9.56899 13.8637 9.97464C13.706 10.3803 13.4203 10.7234 13.0499 10.952C12.789 10.9008 12.5183 10.9554 12.2976 11.1037C12.0769 11.2521 11.9241 11.482 11.8729 11.743C11.8217 12.004 11.8763 12.2746 12.0247 12.4953C12.173 12.7161 12.403 12.8688 12.6639 12.92L13.6139 16.05H10.3859L11.3359 12.92C11.3839 12.7386 11.3723 12.5466 11.3028 12.3723C11.2333 12.198 11.1096 12.0506 10.9499 11.952C10.3264 11.8128 9.78373 11.4315 9.44129 10.8922C9.09885 10.3528 8.98469 9.69952 9.12393 9.076C9.26317 8.45248 9.6444 7.9098 10.1838 7.56736C10.7231 7.22492 11.3764 7.11076 11.9999 7.25Z" fill="white"/>
</g>
<defs>
<clipPath id="clip0_1065_883">
<rect width="24" height="24" fill="white"/>
</clipPath>
</defs>
</svg>
