<svg width="73" height="20" viewBox="0 0 73 20" fill="none" xmlns="http://www.w3.org/2000/svg">
    <g clip-path="url(#clip0_2663_5906)">
        <rect width="20" height="20" rx="4.70588" fill="#141E12"/>
        <g clip-path="url(#clip1_2663_5906)">
            <rect width="21.3333" height="21.3333" transform="translate(-0.646179 -0.667969)" fill="#141E12"/>
            <path d="M15.8794 5.53337C18.2935 9.17492 10.7048 17.2159 -1.96188 9.48259" stroke="#FFFFFB" stroke-width="2.84444"/>
            <path d="M15.8794 5.53337C18.2935 9.17492 10.7048 17.2159 -1.96188 9.48259" stroke="url(#paint0_linear_2663_5906)" stroke-width="2.84444"/>
            <path d="M14.674 6.28929C15.0909 6.95534 15.9685 7.15776 16.6342 6.74141C17.2999 6.32506 17.5016 5.44761 17.0848 4.78157L15.8794 5.53543L14.674 6.28929ZM6.527 21.6624L7.90718 21.3202C5.86493 13.1082 7.71906 8.86959 9.7769 7.02532C10.8345 6.0775 12.0105 5.68486 12.9634 5.665C13.9669 5.64408 14.5021 6.01473 14.674 6.28929L15.8794 5.53543L17.0848 4.78157C16.1998 3.36763 14.5098 2.78767 12.9018 2.82119C11.2433 2.85576 9.42161 3.5226 7.87754 4.90643C4.73206 7.72545 2.96686 13.2388 5.14683 22.0046L6.527 21.6624Z" fill="#FFFFFB"/>
        </g>
    </g>
    <path d="M54.0018 0V6.10276C54.0682 6.03639 54.1768 5.97002 54.3095 5.88254C54.4633 5.77394 54.771 5.6412 55.2326 5.48735C55.6942 5.3335 56.1979 5.24602 56.7047 5.24602C58.0653 5.24602 59.2086 5.70757 60.1287 6.65179C61.0518 7.5749 61.5103 8.69409 61.5103 10.0335C61.5103 11.3729 61.0488 12.471 60.1045 13.4152C59.1814 14.3594 58.0411 14.821 56.7017 14.821C55.3623 14.821 54.2642 14.3805 53.32 13.5268C52.3758 12.6701 51.8931 11.4845 51.8931 9.97015V0H54.0018ZM56.7017 7.2672C55.1873 7.2672 54.0018 8.43164 54.0018 10.0335C54.0018 11.6354 55.1421 12.7998 56.7017 12.7998C58.2614 12.7998 59.4017 11.6142 59.4017 10.0335C59.4017 8.45275 58.2161 7.2672 56.7017 7.2672Z" fill="#141E12"/>
    <path d="M42.2394 6.65187C43.1836 5.70765 44.3028 5.24609 45.6422 5.24609C46.9816 5.24609 48.0797 5.70765 49.0239 6.65187C49.9681 7.59609 50.4297 8.71528 50.4297 10.0336C50.4297 11.3519 49.9681 12.4922 49.0239 13.4364C48.0797 14.3595 46.9605 14.8211 45.6422 14.8211C44.3239 14.8211 43.1836 14.3595 42.2394 13.4364C41.2952 12.4922 40.8336 11.373 40.8336 10.0336C40.8336 8.69416 41.2952 7.59609 42.2394 6.65187ZM42.9423 10.0336C42.9423 10.8451 43.2047 11.5057 43.7115 12.0306C44.2395 12.5344 44.876 12.7999 45.6422 12.7999C46.4085 12.7999 47.048 12.5374 47.5518 12.0306C48.0797 11.5027 48.3421 10.8451 48.3421 10.0336C48.3421 9.22208 48.0797 8.56143 47.5518 8.05764C47.048 7.52972 46.4115 7.26727 45.6422 7.26727C44.873 7.26727 44.2364 7.52972 43.7115 8.05764C43.2077 8.56143 42.9423 9.22208 42.9423 10.0336Z" fill="#141E12"/>
    <path d="M64.378 6.65187C65.3222 5.70765 66.4414 5.24609 67.7808 5.24609C69.1202 5.24609 70.2183 5.70765 71.1625 6.65187C72.1068 7.59609 72.5683 8.71528 72.5683 10.0336C72.5683 11.3519 72.1068 12.4922 71.1625 13.4364C70.2183 14.3595 69.0991 14.8211 67.7808 14.8211C66.4625 14.8211 65.3222 14.3595 64.378 13.4364C63.4338 12.4922 62.9722 11.373 62.9722 10.0336C62.9722 8.69416 63.4338 7.59609 64.378 6.65187ZM65.0809 10.0336C65.0809 10.8451 65.3433 11.5057 65.8501 12.0306C66.3781 12.5344 67.0146 12.7999 67.7808 12.7999C68.5471 12.7999 69.1866 12.5374 69.6904 12.0306C70.2183 11.5027 70.4808 10.8451 70.4808 10.0336C70.4808 9.22208 70.2183 8.56143 69.6904 8.05764C69.1866 7.52972 68.5501 7.26727 67.7808 7.26727C67.0116 7.26727 66.3751 7.52972 65.8501 8.05764C65.3464 8.56143 65.0809 9.22208 65.0809 10.0336Z" fill="#141E12"/>
    <path d="M26.8144 13.9652V20.0016H24.7057V10.1008C24.7057 8.58645 25.1884 7.4009 26.1326 6.54416C27.0768 5.68742 28.2171 5.25 29.5143 5.25C30.8115 5.25 31.994 5.71155 32.9171 6.65578C33.8613 7.6 34.3229 8.71919 34.3229 10.0375C34.3229 11.3558 33.8613 12.4961 32.9412 13.4403C32.0181 14.3634 30.8778 14.825 29.5173 14.825C28.4856 14.825 27.4961 14.475 27.1251 14.1884L26.8174 13.9682L26.8144 13.9652ZM29.5143 7.26816C27.9547 7.26816 26.8144 8.45372 26.8144 10.0345C26.8144 11.6152 27.9999 12.8008 29.5143 12.8008C31.0287 12.8008 32.2142 11.6363 32.2142 10.0345C32.2142 8.4326 31.0287 7.26816 29.5143 7.26816Z" fill="#141E12"/>
    <path d="M37.7814 14.7102H35.6969V9.13236C35.6969 6.43243 37.2113 5.35547 39.2536 5.35547H39.7574V7.37665H39.3622C38.3094 7.37665 37.7814 7.97094 37.7814 9.13236V14.7102Z" fill="#141E12"/>
    <defs>
        <linearGradient id="paint0_linear_2663_5906" x1="14.4127" y1="11.5528" x2="-1.20633" y2="11.5528" gradientUnits="userSpaceOnUse">
            <stop stop-color="#101E1C" stop-opacity="0"/>
            <stop offset="1" stop-color="#101E1C"/>
        </linearGradient>
        <clipPath id="clip0_2663_5906">
            <rect width="20" height="20" rx="4.70588" fill="white"/>
        </clipPath>
        <clipPath id="clip1_2663_5906">
            <rect width="21.3333" height="21.3333" fill="white" transform="translate(-0.646179 -0.667969)"/>
        </clipPath>
    </defs>
</svg>
